<?xml version="1.0" encoding="UTF-8"?><svg id="Layer_1" xmlns="http://www.w3.org/2000/svg" viewBox="0 0 1661.19 300"><defs><style>.cls-1{fill:#101010;}</style></defs><g><g><path class="cls-1" d="M256.07,256.07c14.92-14.92,26.53-32.83,34.06-52.54,7.53-19.72,10.82-40.8,9.64-61.87l-79.06,79.06h0l-79.06,79.06c21.07,1.17,42.15-2.11,61.87-9.64,19.72-7.53,37.62-19.14,52.54-34.06h0Z"/><path class="cls-1" d="M178.73,178.73l15.27-44.32c3.71-10.77,9.82-20.55,17.88-28.6l52.66-52.66c14.27,16.87,24.63,36.69,30.35,58.04l-38.82,38.82c-8.05,8.05-17.83,14.17-28.6,17.88l-44.32,15.27h0l-15.27,44.32c-3.71,10.77-9.82,20.55-17.88,28.6l-38.82,38.82c-21.34-5.72-41.16-16.08-58.04-30.35l52.66-52.66c8.05-8.05,17.84-14.17,28.6-17.88l44.32-15.27h0Z"/></g><path class="cls-1" d="M121.27,121.27l44.32-15.27c10.77-3.71,20.55-9.82,28.6-17.88l52.66-52.66c-16.87-14.27-36.69-24.63-58.04-30.35l-38.82,38.82c-8.05,8.05-14.17,17.83-17.88,28.6l-15.27,44.32h0l-44.32,15.27c-10.77,3.71-20.55,9.82-28.6,17.88L5.11,188.82c5.72,21.34,16.08,41.16,30.35,58.04l52.66-52.66c8.05-8.05,14.17-17.84,17.88-28.6l15.27-44.32h0Z"/><path class="cls-1" d="M43.93,43.93c14.92-14.92,32.83-26.53,52.54-34.06C116.19,2.34,137.27-.94,158.35,.23L79.29,79.29h0L.23,158.35c-1.17-21.07,2.11-42.15,9.64-61.87,7.53-19.72,19.14-37.62,34.06-52.54h0Z"/></g><g><path class="cls-1" d="M1474.7,250.02h41.99v-91.47l85.95,91.27h58.55l-102.31-106.45,94.82-93.64h-61.11l-75.9,81.02V49.92h-41.99V250.02h0Z"/><path class="cls-1" d="M1440.01,49.92h-41.99V250.02h41.99V49.92Z"/><path class="cls-1" d="M1186.3,49.92l66.04,200.09h64.46l66.04-200.09h-44.55l-53.62,165.99-53.82-165.99h-44.55Z"/><path class="cls-1" d="M1100.15,49.92h-88.32V250.02h87.92c60.13,0,87.33-36.08,87.33-99.36s-26.81-100.74-86.94-100.74Zm0,166.19h-46.33V83.63h46.33c32.33,0,44.55,22.28,44.55,67.03s-12.42,65.45-44.55,65.45Z"/><path class="cls-1" d="M800.9,250.02h41V81.66l77.47,168.35h58.75V49.92h-41V201.32l-68.8-151.4h-67.42V250.02Z"/><path class="cls-1" d="M399.53,178.06c-1.58,55.59,34.1,75.31,93.05,75.31,49.88,0,87.92-18.14,87.92-66.63,0-43.37-32.53-51.45-68.6-55l-36.67-3.35c-22.08-1.97-29.96-8.67-29.96-25.23,0-19.71,13.8-28.98,42.78-28.98s46.33,10.05,46.72,38.64h43.96c0-46.33-21.68-68.41-91.47-68.41-55.99,0-87.13,21.09-87.13,61.9,0,38.05,25.82,51.45,61.31,55l40.41,3.94c28.78,2.96,34.7,10.84,34.7,25.43,0,24.25-13.8,31.54-43.96,31.54-40.81,0-47.31-20.3-46.92-44.16h-46.13Z"/><path class="cls-1" d="M718.89,49.92h-67.81l-68.41,200.09h43.17l15.77-46.13h87.13l15.57,46.13h43.37l-68.8-200.09Zm-65.25,119.07l31.74-92.26,31.34,92.26h-63.08Z"/></g></svg>